<svg id="Ebene_1" data-name="Ebene 1" xmlns="http://www.w3.org/2000/svg" viewBox="0 0 177.44 69.02">
  <title>WeAreDevelopers_Logo-Mark</title>
  <g>
    <polygon points="95.37 10.65 83.96 10.65 83.96 10.65 71.36 43.5 58.76 10.65 58.76 10.65 47.35 10.65 47.35 10.65 47.35 10.65 47.35 10.65 34.75 43.5 22.14 10.65 10.74 10.65 29.05 58.36 40.45 58.36 40.45 58.36 40.45 58.36 53.05 25.51 65.66 58.36 65.66 58.36 65.66 58.36 77.06 58.36 77.06 58.36 77.06 58.36 89.67 25.51 102.27 58.36 113.67 58.36 95.37 10.65 95.37 10.65" fill="#ff164c"/>
    <polygon points="119.38 10.65 119.38 21.98 152.02 34.5 119.38 47.02 119.38 58.36 166.78 40.17 166.78 40.17 166.78 28.84 166.78 28.83 119.38 10.65" fill="#ff164c"/>
  </g>
</svg>
